<svg id="Icon" viewBox="0 0 512 512" xmlns="http://www.w3.org/2000/svg"><path d="m219.2568 172.7964-7.9932 46.605 41.8535-22.0039c.7285-.3828 1.5283-.5742 2.3271-.5742s1.5986.1914 2.3271.5742l41.8535 22.0039-7.9932-46.605c-.2783-1.6221.2588-3.2769 1.4375-4.4258l33.8604-33.0059-46.7939-6.7993c-1.6289-.2368-3.0371-1.2598-3.7646-2.7354l-20.9268-42.4023-20.9277 42.4023c-.7285 1.4756-2.1357 2.4985-3.7646 2.7354l-46.793 6.7993 33.8604 33.0059c1.1787 1.1489 1.7158 2.8037 1.4375 4.4258z"/><path d="m487.6719 344.5327c0-7.2527-5.5488-13.6874-14.6328-17.5518 16.8254-18.4423 34.5398-45.5255 33.5071-59.5935.0007-29.3982-23.9173-53.3156-53.3157-53.3156s-53.3164 23.9175-53.3164 53.3159c-.0376 12.2126 8.6466 29.2385 25.3901 49.9594-22.9321-11.4608-50.8237-20.4347-82.0005-26.3401 43.3047-55.9698 65.25-100.8263 65.25-133.4537 0-84.1182-68.4355-152.5532-152.5537-152.5532s-152.5537 68.435-152.5537 152.5531c0 32.6274 21.9453 77.4839 65.25 133.4537-31.1768 5.9054-59.0684 14.8793-82.0005 26.3401 16.7443-20.7222 25.4262-37.7455 25.3901-49.9594 0-29.3984-23.9179-53.3159-53.3164-53.3159s-53.3164 23.9175-53.3164 53.3159c0 12.2368 8.5 28.9937 25.2646 49.8047 2.8052 3.4823 5.5977 6.7739 8.2432 9.7886-16.7692 6.8089-20.0534 23.2492-4.7544 32.6267-30.0117 48.2351 5.6771 90.2148 68.1636 116.4915-2.2075 2.8521-3.4189 6.0575-3.4189 9.4409 1.0647 24.8196 52.5975 27.8999 65.7583 9.011 57.1923 11.5954 125.3887 11.5954 182.5811 0 13.0891 18.8956 64.7812 15.7647 65.7585-9.0114-.0002-3.383-1.2116-6.5884-3.4191-9.4405 62.4699-26.2672 98.1821-68.2536 68.1636-116.4915 6.1353-3.8301 9.8784-9.1316 9.8784-15.075zm-10 0c0 3.0823-3.4854 6.373-9.1177 8.6072-4.8339 1.9022-10.1281 2.6951-15.3237 2.7083-13.9893 0-24.4414-5.9741-24.4414-11.3154.2203-4.8607 7.3753-8.2116 11.8745-9.5582 5.1938 5.5557 8.8223 9.0709 9.0942 9.3336.9688.9351 2.2207 1.4023 3.4727 1.4023s2.5039-.4673 3.4727-1.4023c.272-.2627 3.9004-3.7781 9.0942-9.3337 7.0215 2.1194 11.8745 5.9349 11.8745 9.5583zm-24.4414-98.3364c10.7725 0 19.5054 8.7327 19.5054 19.505-1.0275 25.8729-37.9866 25.866-39.0103-.0002 0-10.7722 8.7329-19.5048 19.5049-19.5048zm-283.5069-110.7422c-2.9625-2.7595-1.2497-8.0389 2.7716-8.5288-.0001 0 54.2176-7.878 54.2176-7.878l24.248-49.1304c.8418-1.7065 2.5801-2.7871 4.4834-2.7871s3.6416 1.0806 4.4834 2.7871l24.2471 49.1304 54.2188 7.8779c1.8838.2739 3.4482 1.5933 4.0361 3.4033.5889 1.8101.0977 3.7969-1.2646 5.1255l-39.2334 38.2427 9.2617 53.9995c.3223 1.876-.4492 3.7715-1.9893 4.8901-1.5435 1.1213-3.585 1.2639-5.2656.3809l-48.4941-25.4951-48.4941 25.4951c-1.6865.8853-3.7275.7373-5.2656-.3809-1.54-1.1187-2.3115-3.0142-1.9893-4.8901l9.2617-53.9995-39.2334-38.2427zm81.7588 248.5974.0015.0018c1.2473 1.3363 2.6398 2.455 4.5162 2.4207 1.8774.0363 3.2688-1.0826 4.5161-2.4207l.0015-.0018c2.7334-2.6794 10.6646-10.5339 21.3984-21.8577 41.281 15.7428 13.2557 43.1955-25.9163 42.7261-39.168.4696-67.2002-26.9839-25.9157-42.7261 10.7339 11.3237 18.665 19.1782 21.3984 21.8577zm-192.7129-137.8552c10.772 0 19.5049 8.7327 19.5049 19.505-1.0276 25.8734-37.9867 25.8655-39.0103-.0002 0-10.7722 8.7329-19.5048 19.5054-19.5048zm-12.5669 88.7781c5.1938 5.5557 8.8223 9.071 9.0942 9.3337.9688.9351 2.2207 1.4023 3.4727 1.4023s2.5039-.4673 3.4727-1.4023c.272-.2627 3.9004-3.778 9.0942-9.3336 26.6921 9.013 2.7369 23.5029-18.3267 20.5228-15.5294-1.7243-29.3179-12.9232-6.8071-20.523zm87.19 91.2393c-10.7725 0-19.5049-8.7328-19.5049-19.5051 1.0272-25.873 37.9865-25.8657 39.0098.0002 0 10.7722-8.7325 19.505-19.5049 19.505zm0 70.6418c-13.9893 0-24.4414-5.9741-24.4414-11.3154-.1361-4.3664 7.3803-8.3701 11.8755-9.5574 5.1934 5.5552 8.8218 9.0701 9.0933 9.3328.9688.9351 2.2207 1.4023 3.4727 1.4023s2.5039-.4673 3.4727-1.4023c.2715-.2627 3.8984-3.776 9.0898-9.3291 2.7287.8281 5.4043 1.9678 7.75 3.593 12.2513 8.8581-5.5819 17.4557-20.3125 17.2761zm245.2148 0c-14.7158.1828-32.5699-8.4171-20.3125-17.2761 2.3458-1.6253 5.0211-2.7648 7.75-3.593 5.1914 5.5531 8.8184 9.0664 9.0898 9.3291.9688.9351 2.2207 1.4023 3.4727 1.4023s2.5039-.4673 3.4727-1.4023c.2715-.2627 3.8999-3.7776 9.0933-9.3328 4.492 1.1847 12.0151 5.1939 11.8754 9.5575 0 5.3412-10.4521 11.3153-24.4413 11.3153zm0-70.6418c-10.7725 0-19.5049-8.7328-19.5049-19.5051 1.0272-25.873 37.9865-25.8657 39.0098.0002 0 10.7722-8.7325 19.505-19.5049 19.505zm89.8946-62.4906c28.9259 43.8072-7.8893 81.4805-67.9199 105.2441-.7174-.3301-1.4276-.6685-2.1504-.9941 10.2039-11.6547 20.3272-24.582 27.124-37.8489 3.001-5.9916 5.5656-12.3424 6.2276-19.0437 1.9144-30.4836-23.4189-56.2385-53.1758-56.0013-30.4195-.3456-56.5947 27.1304-52.8965 58.2292 4.1195 20.366 19.5773 38.7658 33.0753 54.6691-7.0723 2.9715-14.2514 8.7883-14.6094 17.0063-55.2439 11.0215-121.1096 11.0215-176.3535 0-.3592-8.2196-7.5357-14.0333-14.6094-17.0063 13.499-15.9029 28.9525-34.2997 33.0757-54.6691 3.6932-31.1001-22.4742-58.5729-52.8969-58.2291-29.7547-.2382-55.0933 25.5181-53.1758 56.0014.6621 6.7016 3.2271 13.0514 6.2275 19.0435 6.7951 13.2644 16.9222 26.197 27.124 37.8489-.7232.3254-1.4326.6641-2.1504.9941-60.0097-23.7538-96.8537-61.4303-67.9199-105.2441 19.2455 6.2353 49.6488-1.4118 49.7128-19.1908-.0771-5.8777-3.2776-10.7303-9.0184-14.5943 24.457-13.4443 55.8145-23.7559 91.4854-30.0454 15.8634 19.9668 33.5321 39.9138 47.0542 54.4473-14.4019 6.1697-23.063 16.1621-23.063 27.1343 0 18.7549 24.7432 33.4463 56.3311 33.4463s56.3311-14.6914 56.3311-33.4463c0-10.9722-8.6611-20.9646-23.063-27.1343 13.5165-14.527 31.1953-34.4858 47.0542-54.4473 35.6709 6.2896 67.0283 16.6011 91.4854 30.0454-5.742 3.8642-8.939 8.7172-9.0186 14.5947.0787 17.7939 30.4656 25.4193 49.7129 19.1905z"/></svg>