<?xml version="1.0"?>
<svg xmlns="http://www.w3.org/2000/svg" data-name="Layer 1" id="Layer_1" viewBox="0 0 128 128"><title/><path d="M127.22192,45.89453c-1.1272-2.9859-3.37537-5.38837-5.5647-7.71649a29.20421,29.20421,0,0,1-4.13477-5.074,27.65165,27.65165,0,0,1-2.20312-5.87775c-1.02588-3.47449-2.08643-7.06714-4.77539-9.757-2.6748-2.67664-6.2749-3.75427-9.75635-4.7962A27.9609,27.9609,0,0,1,94.918,10.45532a29.154,29.154,0,0,1-5.04736-4.11951C87.27686,3.89307,84.59521,1.36725,81.07666.42493c-3.585-.96-7.21484-.10693-10.72754.7182A28.88074,28.88074,0,0,1,64.00049,2.17a28.91787,28.91787,0,0,1-6.34961-1.02686C54.13867.318,50.50732-.53406,46.9248.42444c-3.519.94232-6.20117,3.46863-8.79492,5.91138A29.13818,29.13818,0,0,1,33.082,10.45532,27.94587,27.94587,0,0,1,27.21289,12.673c-3.48193,1.04193-7.082,2.11957-9.75684,4.7962-2.68848,2.68988-3.74951,6.283-4.77539,9.757A27.668,27.668,0,0,1,10.478,33.104a29.218,29.218,0,0,1-4.13428,5.07306c-2.18976,2.32813-4.438,4.73108-5.56519,7.7171A1.99287,1.99287,0,0,0,2,49.46722H126a1.99288,1.99288,0,0,0,1.22192-3.57269ZM78.29541,18.125a2.0011,2.0011,0,0,1,2.55615-1.21039c1.31006.46771,2.61523.997,3.87939,1.5722a2,2,0,1,1-1.65723,3.6405c-1.16211-.52881-2.36279-1.01562-3.56787-1.44623A2,2,0,0,1,78.29541,18.125Zm-9.67676-3.9115c1.37988.12744,2.7749.31494,4.14648.55713a2,2,0,1,1-.69629,3.93884c-1.2627-.22314-2.54736-.39551-3.81787-.5127a2.0001,2.0001,0,1,1,.36768-3.98328Zm-12.521.41211c1.37207-.21826,2.77051-.38184,4.15723-.48535a2.00012,2.00012,0,1,1,.29785,3.98914c-1.27637.09521-2.56348.24512-3.82617.44629a1.99991,1.99991,0,1,1-.62891-3.95007Zm-12.03125,3.5072c1.27393-.55322,2.58887-1.05957,3.90771-1.50531a2.00016,2.00016,0,1,1,1.28027,3.78992c-1.21338.40967-2.42334.87543-3.59521,1.38422a1.99982,1.99982,0,1,1-1.59277-3.66882ZM30.09229,32.915c-.86768.94482-1.70361,1.93549-2.48535,2.9433a2,2,0,0,1-3.16113-2.45111c.84961-1.09521,1.75781-2.17084,2.7002-3.19714a1.99984,1.99984,0,0,1,2.94629,2.705Zm4.43066-4.80157A1.99993,1.99993,0,0,1,33.291,24.53693c1.09863-.85742,2.24561-1.67676,3.4082-2.436a2,2,0,1,1,2.18652,3.34949c-1.06934.69775-2.12354,1.4516-3.13379,2.23969A1.992,1.992,0,0,1,34.52295,28.11346Zm2.18964,17.35394a32.93312,32.93312,0,0,1,54.57483,0Zm58.9715-17.58148a1.99991,1.99991,0,0,1-2.8125.29883c-.99658-.80518-2.03711-1.57617-3.09229-2.29193a2,2,0,1,1,2.24512-3.31042c1.14746.77826,2.27783,1.61615,3.36084,2.49109A1.99944,1.99944,0,0,1,95.68408,27.88593Zm7.99072,9.00751a2.00034,2.00034,0,0,1-2.7998-.40234c-.7666-1.02435-1.58643-2.02924-2.43652-2.98767a1.99988,1.99988,0,0,1,2.99219-2.65424c.92334,1.04053,1.81348,2.13226,2.64648,3.24457A1.99988,1.99988,0,0,1,103.6748,36.89343Z"/><path d="M126,78.53271H2A1.99288,1.99288,0,0,0,.77808,82.10541c1.1272,2.986,3.37537,5.38837,5.5647,7.71649a29.2042,29.2042,0,0,1,4.13477,5.074,27.65415,27.65415,0,0,1,2.20313,5.87775c1.02588,3.47455,2.08643,7.0672,4.77539,9.757,2.6748,2.6767,6.2749,3.75427,9.75635,4.79626a27.95416,27.95416,0,0,1,5.86963,2.21771,29.15635,29.15635,0,0,1,5.04736,4.11945c2.59375,2.44281,5.27539,4.96863,8.79395,5.91095,3.5835.9585,7.21484.10645,10.72754-.7182A28.88074,28.88074,0,0,1,63.99951,125.83a28.91787,28.91787,0,0,1,6.34961,1.02686,32.46479,32.46479,0,0,0,7.33105,1.143,13.06362,13.06362,0,0,0,3.395-.42432c3.519-.94232,6.20117-3.46863,8.79492-5.91144a29.14052,29.14052,0,0,1,5.04785-4.11945,27.93914,27.93914,0,0,1,5.86914-2.21771c3.48193-1.042,7.082-2.11957,9.75684-4.79626,2.68848-2.68982,3.74951-6.283,4.77539-9.757a27.67053,27.67053,0,0,1,2.20264-5.87775,29.218,29.218,0,0,1,4.13428-5.07306c2.18976-2.32812,4.438-4.731,5.56519-7.7171A1.99287,1.99287,0,0,0,126,78.53271ZM25.44189,92.66705a1.99993,1.99993,0,0,1-2.7793-.52441c-.78418-1.14838-1.52881-2.34515-2.21387-3.556a2.00019,2.00019,0,0,1,3.48242-1.96869c.62939,1.11322,1.314,2.21381,2.03516,3.2699A1.99971,1.99971,0,0,1,25.44189,92.66705Zm8.33984,8.68378a1.99972,1.99972,0,0,1-2.82275.17725c-.78662-.69385-1.56494-1.42523-2.314-2.17426q-.35742-.35669-.70605-.71973a2.00012,2.00012,0,0,1,2.88281-2.77332q.32153.33472.65137.665c.69043.68988,1.40771,1.36371,2.13135,2.00238A1.99968,1.99968,0,0,1,33.78174,101.35083Zm10.22705,6.347a1.998,1.998,0,0,1-2.68945.87494c-1.23633-.62933-2.46338-1.32025-3.64648-2.05414a1.99978,1.99978,0,1,1,2.10742-3.39929c1.08887.6748,2.2168,1.31049,3.35352,1.8891A1.99931,1.99931,0,0,1,44.00879,107.69781Zm11.48828,3.58875a1.99644,1.99644,0,0,1-2.38623,1.518c-1.356-.30127-2.71631-.66406-4.04395-1.07806a1.9999,1.9999,0,1,1,1.19141-3.81824c1.22119.3808,2.47314.71478,3.7207.99213A1.99931,1.99931,0,0,1,55.49707,111.28656ZM65.584,113.97394q-.79175.0249-1.584.0249c-.86377,0-1.73877-.02246-2.60107-.06689A2.00012,2.00012,0,1,1,61.605,109.937q1.92407.09952,3.85205.03906a1.99994,1.99994,0,1,1,.127,3.99786Zm12.37549-1.954c-1.33594.38721-2.7041.72217-4.06689.99609a2.03073,2.03073,0,0,1-.39551.03955,2.00023,2.00023,0,0,1-.3916-3.9613c1.25293-.25146,2.51123-.55957,3.73975-.916a2,2,0,1,1,1.11426,3.84167ZM89.4624,107.043c-1.1958.709-2.438,1.37543-3.69043,1.98138a1.99991,1.99991,0,1,1-1.74219-3.60046c1.15186-.55713,2.29346-1.17035,3.39355-1.8222A2,2,0,1,1,89.4624,107.043ZM87.33447,87.33368a32.93329,32.93329,0,0,1-50.62189-4.80109H91.28741A33.08805,33.08805,0,0,1,87.33447,87.33368ZM99.45557,99.25275l-.09033.09082c-.99512.99561-2.03076,1.94867-3.08789,2.84418a2.00005,2.00005,0,1,1-2.585-3.05267c.97314-.82416,1.92676-1.70209,2.83447-2.60925l.10059-.10107a1.99974,1.99974,0,0,1,2.82813,2.828Zm7.66211-9.91571c-.70459,1.19727-1.46875,2.37933-2.27246,3.51459a2,2,0,0,1-3.26465-2.31146c.73877-1.04346,1.44189-2.1308,2.08984-3.23138a1.99984,1.99984,0,0,1,3.44727,2.02826Z"/><path d="M94,58.00018a1.99994,1.99994,0,1,0,0-3.99988H89a4.00452,4.00452,0,0,0-4,3.99988V69.99982a4.0045,4.0045,0,0,0,4,3.99982h5a1.99991,1.99991,0,1,0,0-3.99982H89V65.99994h4a1.99994,1.99994,0,1,0,0-3.99988H89V58.00018Z"/><path d="M18,71.99976V65.99994h5a4.00452,4.00452,0,0,0,4-3.99988V58.00018a4.00452,4.00452,0,0,0-4-3.99988H18a4.00452,4.00452,0,0,0-4,3.99988V71.99976a2,2,0,0,0,4,0Zm0-13.99957h5v3.99988H18Z"/><path d="M44,62.00006V58.00018a4.00452,4.00452,0,0,0-4-3.99988H35a4.00452,4.00452,0,0,0-4,3.99988V71.99976a2,2,0,0,0,4,0V68.82843l4.58594,4.58533a1.99976,1.99976,0,0,0,2.82813-2.82806l-4.58545-4.58575H40A4.00452,4.00452,0,0,0,44,62.00006Zm-9,0V58.00018h5v3.99988Z"/><path d="M58,73.99963a4.0045,4.0045,0,0,0,4-3.99982V58.00018a4.00452,4.00452,0,0,0-4-3.99988H52a4.00452,4.00452,0,0,0-4,3.99988V69.99982a4.0045,4.0045,0,0,0,4,3.99982ZM52,58.00018h6l.00244,11.99963H52Z"/><path d="M73,73.99963a1.99963,1.99963,0,0,0,1.87256-1.29779l6-15.99945a1.99987,1.99987,0,0,0-3.74512-1.4043L73,66.30414l-4.12744-11.006a1.99987,1.99987,0,0,0-3.74512,1.4043l6,15.99945A1.99963,1.99963,0,0,0,73,73.99963Z"/><path d="M104,71.99976V62.99512l6.30225,10.1203A2,2,0,0,0,114,72.05835V56.00024a2,2,0,0,0-4,0v9.06317l-6.30225-10.12024A2,2,0,0,0,100,56.00024V71.99976a2,2,0,0,0,4,0Z"/></svg>
