<svg height="512" viewBox="0 0 32 32" width="512" xmlns="http://www.w3.org/2000/svg"><g id="Layer_2" data-name="Layer 2"><path d="m22 14a8 8 0 1 0 8 8 8 8 0 0 0 -8-8zm1 11.949v.051a1 1 0 0 1 -2 0 1 1 0 0 1 0-2h1.5a.5.5 0 0 0 0-1h-1a2.5 2.5 0 0 1 -.5-4.949v-.051a1 1 0 0 1 2 0 1 1 0 0 1 0 2h-1.5a.5.5 0 0 0 0 1h1a2.5 2.5 0 0 1 .5 4.949z"/><path d="m22 12a9.979 9.979 0 0 1 7.12 2.99.968.968 0 0 0 .64-.34 1 1 0 0 0 -.11-1.41l-13-11a1 1 0 0 0 -1.3 0l-13 11a1 1 0 1 0 1.3 1.52l1.35-1.14v13.38a3 3 0 0 0 3 3h3a2.006 2.006 0 0 0 2-2v-1.65a9.894 9.894 0 0 1 -1-4.35 10.016 10.016 0 0 1 10-10z"/></g></svg>