<svg id="Icon" viewBox="0 0 24 24" xmlns="http://www.w3.org/2000/svg"><path d="m10.75 12.77c0-.86.47-1.63 1.23-2.01l2-1.02c.32-.16.67-.24 1.02-.24h2.75v-4.5c0-1.52-1.23-2.75-2.75-2.75h-9c-1.52 0-2.75 1.23-2.75 2.75v13c0 1.52 1.23 2.75 2.75 2.75h6.86c-1.33-1.43-2.11-3.34-2.11-5.37zm-4.75-7.52h7c.414 0 .75.336.75.75s-.336.75-.75.75h-7c-.414 0-.75-.336-.75-.75s.336-.75.75-.75zm3 7.5h-3c-.414 0-.75-.336-.75-.75s.336-.75.75-.75h3c.414 0 .75.336.75.75s-.336.75-.75.75zm1-3h-4c-.414 0-.75-.336-.75-.75s.336-.75.75-.75h4c.414 0 .75.336.75.75s-.336.75-.75.75zm11.34 2.346-2-1.015c-.105-.053-.222-.081-.34-.081h-4c-.118 0-.234.028-.34.081l-2 1.015c-.252.128-.41.387-.41.669v2.618c0 2.657 1.66 5.07 4.134 6.005.198.075.406.112.615.112s.419-.038.62-.113c2.471-.934 4.131-3.347 4.131-6.004v-2.618c0-.282-.158-.541-.41-.669zm-2.28 3.142-1.8 2.015c-.143.159-.346.25-.56.25s-.417-.091-.56-.25l-1.2-1.344c-.275-.309-.249-.783.06-1.059.31-.275.782-.25 1.06.06l.641.717 1.24-1.389c.275-.309.749-.335 1.06-.06.309.276.335.75.06 1.059z"/></svg>