<svg clip-rule="evenodd" fill-rule="evenodd" stroke-linejoin="round" stroke-miterlimit="2" viewBox="0 0 510 510" xmlns="http://www.w3.org/2000/svg"><path d="m255.026 426.667c-94.554 0-171.693-77.088-171.693-171.641 0-94.554 77.139-171.693 171.693-171.693 94.553 0 171.641 77.139 171.641 171.693 0 94.553-77.088 171.641-171.641 171.641zm-.006-31.229c77.353 0 140.418-63.065 140.418-140.418s-63.065-140.458-140.418-140.458-140.458 63.105-140.458 140.458 63.105 140.418 140.458 140.418zm0-16c-68.54 0-124.458-55.878-124.458-124.418 0-68.541 55.917-124.458 124.458-124.458 68.54 0 124.418 55.918 124.418 124.458 0 68.539-55.879 124.418-124.418 124.418zm-17.167-112.904-29.229-29.229c-7.57-7.57-19.863-7.57-27.433 0-7.571 7.61-7.571 19.863 0 27.434l42.965 43.003c7.57 7.571 19.863 7.571 27.433 0 25.912-25.911 51.511-52.096 77.306-78.124 7.531-7.61 7.492-19.863-.078-27.395-7.571-7.531-19.863-7.492-27.395.078zm9.147-251.534c0-4.415 3.585-8 8-8s8 3.585 8 8v32.253c0 4.415-3.585 8-8 8s-8-3.585-8-8zm121.072 28.154c2.207-3.824 7.104-5.136 10.928-2.928 3.824 2.207 5.136 7.104 2.928 10.928l-16.126 27.932c-2.208 3.824-7.105 5.136-10.928 2.928-3.824-2.208-5.136-7.104-2.929-10.928zm90.774 84.918c3.824-2.208 8.721-.896 10.928 2.928 2.208 3.824.896 8.721-2.928 10.928l-27.932 16.127c-3.824 2.207-8.72.895-10.928-2.929-2.208-3.823-.896-8.72 2.928-10.928zm36.154 118.928c4.415 0 8 3.585 8 8s-3.585 8-8 8h-32.253c-4.415 0-8-3.585-8-8s3.585-8 8-8zm-28.154 121.072c3.824 2.207 5.136 7.104 2.928 10.928-2.207 3.824-7.104 5.136-10.928 2.928l-27.932-16.126c-3.824-2.208-5.136-7.105-2.928-10.928 2.208-3.824 7.104-5.136 10.928-2.929zm-84.918 90.774c2.208 3.824.896 8.721-2.928 10.928-3.824 2.208-8.721.896-10.928-2.928l-16.127-27.932c-2.207-3.824-.895-8.72 2.929-10.928 3.823-2.208 8.72-.896 10.928 2.928zm-118.928 36.154c0 4.415-3.585 8-8 8s-8-3.585-8-8v-32.253c0-4.415 3.585-8 8-8s8 3.585 8 8zm-121.072-28.154c-2.207 3.824-7.104 5.136-10.928 2.928-3.824-2.207-5.136-7.104-2.928-10.928l16.126-27.932c2.208-3.824 7.105-5.136 10.928-2.928 3.824 2.208 5.136 7.104 2.929 10.928zm-90.774-84.918c-3.824 2.208-8.721.896-10.928-2.928-2.208-3.824-.896-8.721 2.928-10.928l27.932-16.127c3.824-2.207 8.72-.895 10.928 2.929 2.208 3.823.896 8.72-2.928 10.928zm-36.154-118.928c-4.415 0-8-3.585-8-8s3.585-8 8-8h32.253c4.415 0 8 3.585 8 8s-3.585 8-8 8zm28.154-121.072c-3.824-2.207-5.136-7.104-2.928-10.928 2.207-3.824 7.104-5.136 10.928-2.928l27.932 16.126c3.824 2.208 5.136 7.105 2.928 10.928-2.208 3.824-7.104 5.136-10.928 2.929zm84.918-90.774c-2.208-3.824-.896-8.721 2.928-10.928 3.824-2.208 8.721-.896 10.928 2.928l16.127 27.932c2.207 3.824.895 8.72-2.929 10.928-3.823 2.208-8.72.896-10.928-2.928z"/></svg>