<svg id="Layer_1" enable-background="new 0 0 512 512" viewBox="0 0 512 512" xmlns="http://www.w3.org/2000/svg"><path clip-rule="evenodd" d="m295.799 413.919 37.233 79.974c1.244 2.673 4.974 2.842 6.455.293l28.175-48.486 55.241 9.652c2.909.508 5.178-2.452 3.931-5.128l-44.052-94.619c-9.075 4.689-20.057 25.101-25.966 34.137-13.357 20.423-37.566 29.89-61.017 24.177zm-34.632-193.875 150.467-173.257c7.997-8.076 21.042-8.099 29.095-.091 8.052 8.007 8.077 21.016.089 29.077-27.394 27.647-137.515 160.507-165.036 188.028-8.045 8.046-21.096 8.045-29.141 0l-57.126-57.126c-8.045-8.045-8.045-21.096 0-29.142s21.097-8.046 29.142 0zm19.365-195.756c36.022 26.964 30.702 25.656 77.668 28.269 8.047.448 15.434 3.096 21.552 7.436l-45.454 52.027c-21.326-17.455-48.585-27.932-78.293-27.932-68.317 0-123.699 55.382-123.699 123.699 0 68.318 55.382 123.7 123.699 123.7s123.699-55.382 123.699-123.7c0-11.269-1.515-22.184-4.339-32.558 12.35-14.292 24.689-28.593 37.069-42.859l24.67 23.297c13.409 12.663 16.838 31.849 8.518 48.309-21.662 42.854-20.051 33.718-14.352 81.397 2.189 18.313-7.573 35.221-24.527 42.482-44.141 18.904-37.033 12.941-63.316 53.128-10.095 15.435-28.441 22.113-46.096 16.777-45.965-13.891-36.687-13.891-82.652 0-17.655 5.335-36.001-1.342-46.096-16.777-26.282-40.187-19.175-34.224-63.316-53.128-16.954-7.261-26.716-24.169-24.527-42.482l3.656-30.585c.999-8.365-.312-15.804-4.113-23.322l-13.896-27.49c-8.32-16.46-4.93-35.688 8.518-48.309 35.012-32.861 30.374-24.827 41.326-71.579 4.207-17.958 19.163-30.508 37.578-31.532 47.943-2.667 39.226.506 77.668-28.269 14.766-11.051 34.29-11.051 49.055.001zm-64.321 389.63c-23.452 5.713-47.661-3.753-61.019-24.178-5.909-9.035-16.891-29.449-25.966-34.137l-44.052 94.619c-1.246 2.676 1.023 5.637 3.931 5.128l55.242-9.652 28.175 48.486c1.482 2.548 5.211 2.38 6.455-.293z" fill-rule="evenodd"/></svg>