<svg id="&#x421;&#x43B;&#x43E;&#x439;_1" enable-background="new 0 0 16 16" viewBox="0 0 16 16" xmlns="http://www.w3.org/2000/svg"><path d="m15.5 9.125h-1.1835938c-.1645508-.5753174-.6893921-1-1.3164063-1h-1.5c-.2070313 0-.375.1679688-.375.375v.125h-.6249999c-.0693359 0-.125-.0561523-.125-.125v-1.625h.125c.2070313 0 .375-.1679688.375-.375v-1.5c0-.6273804-.4249878-1.1519775-1-1.3164673v-1.1835327c0-.2070313-.1679688-.375-.375-.375h-3c-.2070313 0-.375.1679688-.375.375v1.1835327c-.5750122.1644898-1 .6890869-1 1.3164673v1.5c0 .2070313.1679688.375.375.375h.125v1.625c0 .0688477-.0556641.125-.125.125h-.625v-.125c0-.2070313-.1679688-.375-.375-.375h-1.5c-.6270142 0-1.1518555.4246826-1.3164063 1h-1.1835937c-.2070313 0-.375.1679688-.375.375v3c0 .2070313.1679688.375.375.375h1.1835938c.1645508.5753174.6893921 1 1.3164063 1h1.5c.2070313 0 .375-.1679688.375-.375v-.125h6.25v.125c0 .2070313.1679688.375.375.375h1.4999999c.6270142 0 1.1518555-.4246826 1.3164063-1h1.1835937c.2070313 0 .375-.1679688.375-.375v-3c0-.2070312-.1679687-.375-.375-.375zm-1.125.75h.75v2.25h-.75zm-7.5-6.25v-.75h2.25v.75zm-.375.75h3c.3447266 0 .625.2802734.625.625v1.125h-4.25v-1.125c0-.3447266.2802734-.625.625-.625zm-4.875 7.75h-.75v-2.25h.75zm.75.375v-3c0-.3447266.2802734-.625.625-.625h1.125v4.25h-1.125c-.3447266 0-.625-.2802734-.625-.625zm2.5.125v-3.25h.625c.0518188 0 .1011963-.0105591.1461182-.0296021.3610229-.0634155.6359253-.3383178.6993408-.6993408.019043-.0448608.029541-.0942383.029541-.1460571v-1.625h3.25v1.625c0 .0518188.0105591.1011963.0296021.1461182.0635376.3609619.3383179.6357422.6992798.6992798.0449218.0190429.0942993.029602.1461181.029602h.625v3.25zm8.125.5h-1.125v-4.25h1.125c.3447266 0 .625.2802734.625.625v3c0 .3447266-.2802734.625-.625.625z" fill="rgb(0,0,0)"/></svg>