<svg clip-rule="evenodd" fill-rule="evenodd" stroke-linejoin="round" stroke-miterlimit="2" viewBox="0 0 510 510" xmlns="http://www.w3.org/2000/svg"><path d="m218.91 344.322c4.238-15.08 24.914-75.74 24.914-75.74l-33.294-26.595 88.331-76.309-28.958 73.799 35.21 25.501zm-117.173 47.399-42.33 36.137.019 66.601c-26.502-14.847-44.426-43.195-44.407-75.717 0-36.233 22.213-67.255 53.754-80.255v-166.993c-31.541-12.962-53.773-44.003-53.773-80.236.019-32.522 17.924-60.85 44.426-75.698v66.582l42.311 36.118 42.31-36.118.02-66.601c26.502 14.847 44.387 43.195 44.407 75.717 0 36.233-22.233 67.274-53.773 80.236v166.993c31.56 12.981 53.753 44.022 53.773 80.236 0 32.541-17.925 60.889-44.407 75.717v-66.582zm126.092-375.725c1.208-.297 2.471-.455 3.77-.455h47.884c8.683 0 15.725 7.043 15.725 15.725 0 47.177 57.132 70.821 90.478 37.476 6.137-6.138 16.121-6.138 22.259 0l33.854 33.883c6.138 6.137 6.138 16.093 0 22.23-33.345 33.346-9.672 90.478 37.476 90.478 8.711 0 15.725 7.042 15.725 15.725v47.884c0 8.683-7.014 15.725-15.725 15.725-47.148 0-70.821 57.132-37.476 90.478 6.138 6.137 6.138 16.121 0 22.259l-33.854 33.854c-6.138 6.138-16.122 6.138-22.259 0-33.346-33.345-90.478-9.672-90.478 37.476 0 8.711-7.042 15.725-15.725 15.725h-47.884c-1.299 0-2.562-.157-3.77-.454v-108.581c8.949 1.906 18.225 2.909 27.729 2.909 73.409 0 133.316-59.907 133.316-133.316 0-73.442-59.907-133.316-133.316-133.316-9.504 0-18.78 1.003-27.729 2.908z"/></svg>