<svg id="Capa_1" enable-background="new 0 0 512 512" height="512" viewBox="0 0 512 512" width="512" xmlns="http://www.w3.org/2000/svg"><g><g><path d="m438.594 336.736h27.306c3.144 9.382 12.011 16.163 22.437 16.163 13.048 0 23.663-10.615 23.663-23.663 0-13.047-10.615-23.662-23.663-23.662-10.426 0-19.292 6.781-22.437 16.162h-27.299c-.818-20.066-4.911-39.703-12.075-58.236h22.201c3.144 9.382 12.011 16.163 22.438 16.163 13.047 0 23.662-10.615 23.662-23.663s-10.615-23.663-23.662-23.663c-10.427 0-19.293 6.781-22.438 16.163h-28.792c-3.254-6.582-6.91-12.992-10.972-19.19-2.271-3.464-6.919-4.432-10.384-2.163-3.465 2.271-4.433 6.92-2.163 10.384 17.888 27.299 27.343 59.011 27.343 91.71.001 92.502-75.256 167.759-167.759 167.759s-167.76-75.257-167.76-167.76c0-92.509 75.257-167.771 167.76-167.771 45.189 0 87.597 17.773 119.409 50.045 2.907 2.95 7.655 2.984 10.605.076 2.95-2.907 2.984-7.656.076-10.605-3.693-3.747-7.525-7.303-11.471-10.687v-28.528c0-4.143-3.357-7.5-7.5-7.5s-7.5 3.357-7.5 7.5v16.946c-6.854-4.749-13.989-9.007-21.368-12.743v-47.354c0-45.354-36.898-82.252-82.252-82.252s-82.252 36.898-82.252 82.252v47.439c-7.428 3.76-14.563 8.014-21.368 12.716v-60.154c.001-57.137 46.484-103.62 103.621-103.62s103.62 46.483 103.62 103.62v8.149c0 4.143 3.357 7.5 7.5 7.5s7.5-3.357 7.5-7.5v-8.149c0-65.407-53.213-118.62-118.62-118.62s-118.62 53.213-118.62 118.62v71.697c-18.77 16.052-34.256 35.832-45.308 58.183h-28.799c-3.144-9.382-12.011-16.163-22.438-16.163-13.047 0-23.662 10.615-23.662 23.663s10.615 23.663 23.662 23.663c10.427 0 19.293-6.781 22.438-16.163h22.204c-7.038 18.195-11.24 37.788-12.07 58.236h-27.307c-3.145-9.381-12.011-16.162-22.437-16.162-13.048 0-23.663 10.615-23.663 23.662 0 13.048 10.615 23.663 23.663 23.663 10.426 0 19.292-6.781 22.437-16.163h27.306c.829 20.449 5.031 40.042 12.069 58.237h-22.202c-3.144-9.382-12.011-16.163-22.438-16.163-13.047 0-23.662 10.615-23.662 23.663 0 13.047 10.615 23.662 23.662 23.662 10.426 0 19.293-6.781 22.438-16.162h28.798c29.863 60.392 92.12 102.027 163.929 102.027s134.066-41.635 163.929-102.026h28.798c3.145 9.381 12.011 16.162 22.438 16.162 13.047 0 23.662-10.615 23.662-23.662 0-13.048-10.615-23.663-23.662-23.663-10.427 0-19.293 6.781-22.438 16.163h-22.202c7.038-18.196 11.239-37.788 12.069-58.238zm32.571-89.399c4.776 0 8.662 3.887 8.662 8.663s-3.886 8.663-8.662 8.663-8.663-3.887-8.663-8.663 3.887-8.663 8.663-8.663zm-282.417-128.719c0-37.083 30.169-67.252 67.252-67.252s67.252 30.169 67.252 67.252v40.606c-21.122-8.369-43.842-12.754-67.252-12.754-23.735 0-46.427 4.552-67.252 12.823zm-147.913 146.045c-4.776 0-8.662-3.887-8.662-8.663s3.886-8.663 8.662-8.663 8.663 3.887 8.663 8.663-3.887 8.663-8.663 8.663zm0 146.473c-4.776 0-8.662-3.886-8.662-8.662s3.886-8.663 8.662-8.663 8.663 3.887 8.663 8.663-3.887 8.662-8.663 8.662zm-17.172-73.237c-4.776 0-8.663-3.887-8.663-8.663s3.887-8.662 8.663-8.662 8.662 3.886 8.662 8.662-3.886 8.663-8.662 8.663zm447.502 55.912c4.776 0 8.662 3.887 8.662 8.663s-3.886 8.662-8.662 8.662-8.663-3.886-8.663-8.662 3.887-8.663 8.663-8.663zm17.172-73.237c4.776 0 8.663 3.886 8.663 8.662s-3.887 8.663-8.663 8.663-8.662-3.887-8.662-8.663 3.886-8.662 8.662-8.662z"/><path d="m151.93 415.628c-2.647-3.188-7.376-3.624-10.562-.978-3.187 2.646-3.624 7.375-.978 10.562 28.656 34.501 70.794 54.288 115.61 54.288 82.854 0 150.26-67.406 150.26-150.26s-67.406-150.26-150.26-150.26-150.26 67.406-150.26 150.26c0 22.785 4.974 44.672 14.782 65.053 1.796 3.732 6.279 5.301 10.011 3.505s5.302-6.278 3.505-10.011c-8.823-18.334-13.298-38.032-13.298-58.547 0-74.582 60.678-135.26 135.26-135.26s135.26 60.678 135.26 135.26-60.678 135.26-135.26 135.26c-40.342 0-78.274-17.813-104.07-48.872z"/><path d="m324.691 404.923c4.143 0 7.5-3.357 7.5-7.5v-107.077c0-2.241-1.002-4.365-2.732-5.789l-68.691-56.569c-2.77-2.281-6.766-2.281-9.535 0l-68.691 56.569c-1.73 1.424-2.732 3.548-2.732 5.789v107.077c0 4.143 3.357 7.5 7.5 7.5zm-129.882-111.038 61.191-50.393 61.191 50.393v96.038h-122.382z"/><path d="m297.618 304.279c-25.281-16.51-57.955-16.51-83.236 0-3.468 2.265-4.443 6.912-2.179 10.38 2.265 3.469 6.913 4.443 10.38 2.179 20.301-13.256 46.533-13.256 66.834 0 1.266.827 2.688 1.222 4.094 1.222 2.448 0 4.848-1.197 6.286-3.4 2.265-3.469 1.289-8.116-2.179-10.381z"/><path d="m284.658 334.872c-16.338-14.094-40.979-14.094-57.316 0-3.136 2.706-3.485 7.441-.779 10.578 2.705 3.135 7.441 3.485 10.578.779 10.752-9.275 26.967-9.275 37.719 0 1.417 1.223 3.16 1.821 4.896 1.821 2.104 0 4.198-.882 5.682-2.601 2.706-3.136 2.356-7.871-.78-10.577z"/><path d="m256 357.016c-4.463 0-8.081 3.618-8.081 8.082 0 4.463 3.618 8.081 8.081 8.081s8.081-3.618 8.081-8.081c0-4.464-3.618-8.082-8.081-8.082z"/></g></g></svg>