<svg id="Capa_1" enable-background="new 0 0 512 512" height="512" viewBox="0 0 512 512" width="512" xmlns="http://www.w3.org/2000/svg"><g><g><path d="m502 92.909h-36.572v-36.469c0-5.522-4.478-10-10-10h-36.544v-36.44c0-5.44-4.561-10-10-10h-132.971-132.971-132.942c-5.522 0-10 4.478-10 10v132.646 132.676 132.663c0 5.438 4.551 10.011 10 10.011h36.544v36.44c0 5.522 4.478 10 10 10h36.572v36.469c0 5.522 4.478 10 10 10h398.884c5.522 0 10-4.478 10-10v-397.996c0-5.522-4.478-10-10-10zm-334.876 305.088 70.411-70.25c12.794-12.764 25.586-25.532 38.38-38.296l52.325 52.209-56.463 56.337zm-132.943 0 108.778-108.536 52.326 52.188-56.478 56.348zm364.703-126.824-56.498 56.348-52.313-52.197c36.271-36.188 72.543-72.377 108.811-108.572zm-189.442 56.35-52.327-52.188 118.811-118.547 52.303 52.209c-19.782 19.739-39.563 39.479-59.346 59.217-.016.016-.033.029-.049.044-.014.014-.026.03-.04.045-15.129 15.094-30.256 30.192-45.385 45.285zm-189.442-160.765 42.309 42.233-42.309 42.224zm122.943-9.984 52.34 52.224-59.122 58.99c-.094.086-.192.165-.283.255l-59.401 59.281-52.32-52.203 59.376-59.245c.046-.046.085-.096.13-.143zm73.562-73.372 59.408-59.275 52.327 52.211-59.104 58.973c-.099.092-.203.175-.3.271-.089.089-.166.186-.25.278l-59.144 59.012-52.341-52.224 59.256-59.112c.048-.047.1-.086.148-.134zm-154.191 258.245-42.314 42.239v-84.459zm336.57-203.149c-18.83 18.794-37.665 37.582-56.498 56.374l-52.302-52.209 108.8-108.558zm-56.486-76.287-42.304-42.211h84.609zm-206.518 73.355c-.001.001-.002.002-.002.002l-59.413 59.295-52.308-52.215 118.787-118.523 52.33 52.192zm263.004 163.861v98.57h-98.79zm-147.155-279.427-42.295 42.192-42.304-42.192zm-132.967 0-98.762 98.542v-98.542zm373.238 470.906h-378.884v-26.469h121.241c5.522 0 10-4.478 10-10s-4.478-10-10-10h-167.813v-26.44h342.34c5.522 0 10-4.478 10-10v-265.336c0-.003 0-.007 0-.007v-76.214h26.544v377.997h-121.241c-5.522 0-10 4.478-10 10s4.478 10 10 10h131.241c5.522 0 10-4.478 10-10v-341.528h26.572z"/><path d="m279.286 444.438c-5.522 0-10 4.478-10 10s4.478 10 10 10h.028c5.522 0 9.985-4.478 9.985-10s-4.49-10-10.013-10z"/></g></g></svg>