<svg id="Capa_1" enable-background="new 0 0 512 512" height="512" viewBox="0 0 512 512" width="512" xmlns="http://www.w3.org/2000/svg"><g><g><g><path d="m363.91 480.94h-341.41c-12.407 0-22.5-10.094-22.5-22.5v-61.73c.344-9.931 14.659-9.923 15 0v61.73c0 4.136 3.365 7.5 7.5 7.5h341.41c9.931.344 9.924 14.66 0 15z"/></g><g><path d="m489.5 341.69h-70.69v-16.07h39.09c14.041-1.315 21.721-8.992 23.04-23.03 0-12.699-10.336-23.03-23.04-23.03h-39.09v-47.12h39.09c14.04-1.315 21.72-8.992 23.04-23.03 0-12.699-10.336-23.03-23.04-23.03h-39.09v-8.52c0-4.143-3.358-7.5-7.5-7.5s-7.5 3.357-7.5 7.5v163.83h-16.06v-287.59c0-4.434 3.602-8.04 8.03-8.04 4.896.462 7.573 3.142 8.03 8.04v91.08c0 4.143 3.358 7.5 7.5 7.5s7.5-3.357 7.5-7.5v-5.93h39.09c14.041-1.315 21.721-8.992 23.04-23.03 0-12.698-10.336-23.029-23.04-23.029h-39.09v-39.091c-1.315-14.04-8.992-21.72-23.03-23.04-12.699 0-23.03 10.336-23.03 23.04v39.09h-47.13v-39.09c-1.316-14.04-8.992-21.72-23.03-23.04-12.699 0-23.03 10.336-23.03 23.04v39.09h-47.122v-39.094c0-12.699-10.332-23.031-23.031-23.031s-23.031 10.332-23.031 23.031v39.094h-47.126v-39.09c-1.315-14.04-8.992-21.72-23.03-23.04-12.699 0-23.03 10.336-23.03 23.04v39.09h-39.09c-14.04 1.315-21.72 8.991-23.04 23.029 0 12.699 10.336 23.03 23.04 23.03h39.09v16.06h-70.69c-12.407 0-22.5 10.094-22.5 22.5v186.221c.377 9.95 14.66 9.905 15 0v-186.221c0-4.136 3.364-7.5 7.5-7.5h125.31c4.136 0 7.5 3.364 7.5 7.5v63.311c0 12.406 10.093 22.5 22.5 22.5h63.19c4.136 0 7.5 3.364 7.5 7.5v63.07c0 12.406 10.093 22.5 22.5 22.5h218.5c4.136 0 7.5 3.364 7.5 7.5v94.25c0 4.136-3.364 7.5-7.5 7.5h-92.91c-9.965.336-9.882 14.689 0 15h92.91c12.407 0 22.5-10.094 22.5-22.5v-94.25c0-12.406-10.093-22.5-22.5-22.5zm-31.6-47.13c4.433 0 8.04 3.603 8.04 8.03-.461 4.897-3.141 7.573-8.04 8.03h-39.09v-16.06zm0-93.18c4.433 0 8.04 3.603 8.04 8.03-.462 4.896-3.142 7.573-8.04 8.03h-39.09v-16.06zm0-93.19c4.433 0 8.04 3.602 8.04 8.029-.461 4.897-3.141 7.573-8.04 8.03h-39.09v-16.06h39.09zm-194.4 202.43v-16.06h109.25v16.061h-109.25zm-93.19-109.24h16.065v16.061h-16.065zm140.31-62.13v47.13h-16.06v-47.13zm62.13 0v47.13h-47.13v-47.13zm0 93.19v47.119h-47.13v-47.119zm-93.19-46.06h-47.122v-47.13h47.122zm-47.122 15h140.312v16.061h-140.312zm78.182 31.06v47.119h-16.06v-47.119zm62.13 93.18v16.07h-47.13v-16.07zm-78.19-271.52c0-4.434 3.602-8.04 8.03-8.04 4.896.462 7.573 3.142 8.03 8.04v39.09h-16.06zm78.19 54.09v16.06h-140.312v-16.06zm-163.343-62.126c4.428 0 8.031 3.603 8.031 8.031v194.405h-16.062v-194.404c-.001-4.429 3.603-8.032 8.031-8.032zm-101.217 8.036c-.085-7.057 8.792-10.742 13.707-5.686 1.517 1.517 2.353 3.536 2.353 5.686v39.09h-16.06zm-62.13 62.12c.462-4.896 3.142-7.573 8.04-8.029h132.275v16.06h-132.275c-4.433-.001-8.04-3.604-8.04-8.031zm62.13 39.09v-16.06h16.06v16.06zm39.62 0h-8.56v-16.06h47.125v47.13h-16.065v-8.57c0-12.407-10.093-22.5-22.5-22.5zm22.5 85.81v-8.68h16.065v16.18h-8.565c-4.135 0-7.5-3.364-7.5-7.5zm70.69 7.5h-8.562v-16.18h47.122v47.119h-16.06v-8.439c0-12.406-10.093-22.5-22.5-22.5zm22.5 85.57v-8.57h16.06v16.07h-8.56c-4.136 0-7.5-3.364-7.5-7.5zm31.06 7.5v-16.07h16.06v16.07z"/><path d="m139.251 209.406c0-12.699-10.332-23.03-23.031-23.03-30.512 1.158-30.503 44.908 0 46.062 12.699 0 23.031-10.333 23.031-23.032zm-23.031 8.032c-4.428 0-8.031-3.603-8.031-8.031.377-10.628 15.686-10.625 16.062 0 0 4.428-3.603 8.031-8.031 8.031z"/><path d="m54.095 279.562c-12.699 0-23.031 10.332-23.031 23.031 1.158 30.511 44.909 30.502 46.062 0 0-12.698-10.331-23.031-23.031-23.031zm0 31.062c-4.428 0-8.031-3.603-8.031-8.03.377-10.63 15.686-10.627 16.062 0 0 4.427-3.603 8.03-8.031 8.03z"/><path d="m147.282 372.749c-12.7 0-23.031 10.332-23.031 23.031 1.158 30.512 44.909 30.504 46.063 0-.001-12.699-10.332-23.031-23.032-23.031zm0 31.063c-4.428 0-8.031-3.603-8.031-8.031.377-10.63 15.687-10.627 16.063 0-.001 4.428-3.604 8.031-8.032 8.031z"/><path d="m302.593 403.812c-12.7 0-23.031 10.332-23.031 23.031 1.157 30.511 44.91 30.503 46.063 0 0-12.699-10.332-23.031-23.032-23.031zm0 31.061c-4.428 0-8.031-3.603-8.031-8.03.377-10.63 15.687-10.627 16.062 0 .001 4.428-3.603 8.03-8.031 8.03z"/><path d="m449.874 395.78c0-12.699-10.332-23.031-23.031-23.031-30.512 1.158-30.504 44.909 0 46.063 12.699 0 23.031-10.333 23.031-23.032zm-31.063 0c0-4.429 3.603-8.031 8.031-8.031 10.63.377 10.627 15.687 0 16.062-4.428.001-8.031-3.602-8.031-8.031z"/></g></g><g><path d="m69.626 201.375c-9.93-.344-9.924-14.659 0-15 9.932.345 9.923 14.66 0 15z"/><path d="m100.689 294.562c-9.93-.344-9.924-14.659 0-15 9.931.345 9.923 14.66 0 15z"/><path d="m224.938 325.625c-9.93-.344-9.924-14.659 0-15 9.931.344 9.923 14.659 0 15z"/><path d="m162.813 449.636c-9.93-.344-9.924-14.659 0-15 9.932.344 9.923 14.659 0 15z"/><path d="m380.249 418.81c-9.93-.344-9.924-14.659 0-15 9.931.344 9.923 14.659 0 15z"/><path d="m473.436 449.636c-9.93-.344-9.924-14.659 0-15 9.931.344 9.923 14.659 0 15z"/><path d="m193.875 294.562c-9.93-.344-9.924-14.659 0-15 9.932.345 9.923 14.66 0 15z"/><path d="m193.875 387.749c-9.93-.344-9.924-14.659 0-15 9.932.344 9.923 14.659 0 15z"/><path d="m255.998 419.083c-9.93-.344-9.924-14.659 0-15 9.931.344 9.923 14.659 0 15z"/><path d="m473.436 387.749c-9.93-.344-9.924-14.659 0-15 9.931.344 9.923 14.659 0 15z"/><path d="m69.626 356.925c-9.93-.344-9.924-14.659 0-15 9.932.344 9.923 14.659 0 15z"/></g></g></svg>