<svg id="Capa_1" enable-background="new 0 0 512 512" height="512" viewBox="0 0 512 512" width="512" xmlns="http://www.w3.org/2000/svg"><g><g id="Page-1_42_"><g id="_x30_43---Wooden-House-Frame"><path id="Shape_96_" d="m284.442 6.724c-4.722-4.326-10.894-6.725-17.297-6.724h-22.289c-6.402-.006-12.573 2.394-17.289 6.724l-222.029 203.409c-3.525 3.237-5.533 7.802-5.538 12.587v272.213c0 9.426 7.641 17.067 17.067 17.067h477.867c9.426 0 17.067-7.641 17.067-17.067v-272.213c-.002-4.788-2.011-9.357-5.538-12.595zm-11.537 12.587 187.895 172.143v28.032l-196.267-180.565v-21.854h2.611c2.135-.004 4.192.797 5.761 2.244zm-102.238 441.489v-85.333h170.667v85.333zm-119.467 0v-85.333h68.267v85.333zm0-119.467h68.267v17.067h-68.267zm68.267-17.066h-68.267v-81.587l68.267-62.805zm17.066 42.666v-202.76l17.067-15.701v312.328h-17.067zm102.4-196.266h102.4v17.067h-170.666v-17.067zm-68.266 34.133h170.667v119.467h-170.667zm0 136.533h170.667v17.067h-170.667zm170.666-187.733h-59.733v-75.785l59.733 54.955zm-85.333-99.345 8.533 7.851v91.494h-17.067v-91.494zm-25.6 99.345h-59.733v-20.83l59.733-54.955zm128 213.333v-218.453l17.067 15.701v296.619h-17.067zm34.133-25.6h68.267v17.067h-68.267zm68.267-17.066h-68.267v-144.393l68.267 62.805zm-68.267 51.2h68.267v85.333h-68.267zm-153.438-356.156c1.569-1.447 3.626-2.248 5.76-2.244h2.611v21.854l-196.266 180.565v-28.041zm-222.028 203.409 17.067-15.642v287.855h-17.067zm34.133 255.147h409.6v17.067h-409.6zm443.733 17.066h-17.067v-287.846l17.067 15.633z"/></g></g></g></svg>