<svg id="Layer_1" height="512" viewBox="0 0 512 512" width="512" xmlns="http://www.w3.org/2000/svg" data-name="Layer 1"><path d="m114.881 401.439a16.915 16.915 0 0 1 0-23.689l30.419-30.364a16.48 16.48 0 0 1 11.819-4.891 16.736 16.736 0 0 1 11.87 28.581l-30.414 30.363a16.789 16.789 0 0 1 -23.69 0zm35.919 35.916a16.789 16.789 0 0 0 23.69 0l30.363-30.414a16.482 16.482 0 0 0 4.891-11.819 16.736 16.736 0 0 0 -28.581-11.871l-30.363 30.415a16.787 16.787 0 0 0 0 23.689zm35.916 35.866a16.791 16.791 0 0 1 0-23.69l30.364-30.363a16.751 16.751 0 0 1 23.689 23.689c-.305.306-.56.612-.815.917q-1.3 1.071-2.6 2.293l-23.74 23.792a27.7 27.7 0 0 0 -2.293 2.6 4.3 4.3 0 0 0 -.917.764 16.789 16.789 0 0 1 -23.69 0zm39.127 24.708a11.252 11.252 0 0 0 15.843 0l23.792-23.74a11.24 11.24 0 0 0 -15.9-15.9l-23.74 23.792a11.19 11.19 0 0 0 0 15.843zm47.735 8.254a11.272 11.272 0 0 1 -15.793.1l15.844-15.9a11.273 11.273 0 0 1 -.051 15.794zm39.122-24.709a16.788 16.788 0 0 1 -23.689 0 7.508 7.508 0 0 0 -.968-.815c-.713-.866-1.427-1.732-2.242-2.547l-1.681-1.682a28.65 28.65 0 0 0 -6.419-30.363 28.224 28.224 0 0 0 -15.538-7.947 33.469 33.469 0 0 0 .152-13.5 16.8 16.8 0 0 1 19.971 2.8l30.414 30.364a16.789 16.789 0 0 1 0 23.69zm35.866-35.917a16.7 16.7 0 0 0 0-23.689l-30.366-30.363a16.751 16.751 0 0 0 -23.689 23.689l30.363 30.363a16.682 16.682 0 0 0 11.87 4.891 16.478 16.478 0 0 0 11.82-4.891zm35.916-35.865a16.789 16.789 0 0 1 -23.69 0l-30.363-30.414a16.733 16.733 0 1 1 23.689-23.639l30.366 30.361a16.787 16.787 0 0 1 0 23.689zm56.294-212.136 71.224 123.338-45.9 26.543-71.223-123.337 45.9-26.542zm-165.264 38.667-60.013 29.6a12.087 12.087 0 0 0 -6.725 8.1l-10.7 37.9a2.085 2.085 0 0 0 1.783 2.7l20.429 2.6a2.021 2.021 0 0 0 2.089-1.018l13.45-22.06a29.72 29.72 0 0 1 28.58-14.621l10.138.866a28.77 28.77 0 0 1 15.08 5.6l68.827 51.659a33.43 33.43 0 0 1 7.9 5.858l21.85 21.912 51.251-29.447-48.041-83.244-12.737 4.84a37.814 37.814 0 0 1 -26.033.509l-67.3-22.416a12.051 12.051 0 0 0 -9.833.662zm-91.7 11.87-61.032.714-55.38 95.981 35.356 20.684 30.312-30.313a33.707 33.707 0 0 1 24.046-9.934 33.935 33.935 0 0 1 33.93 35.967 33.935 33.935 0 0 1 35.967 33.93c0 .662 0 1.273-.051 1.936a34.028 34.028 0 0 1 26.033 9.883c.663.662 1.274 1.376 1.885 2.089a34.152 34.152 0 0 1 17.576-3.719c-.051-.663-.1-1.274-.1-1.936a33.937 33.937 0 0 1 35.968-33.981c-.051-.611-.051-1.273-.051-1.936a33.892 33.892 0 0 1 19.97-30.974l-49.009-36.732a11.567 11.567 0 0 0 -6.215-2.242l-10.088-.866a12.635 12.635 0 0 0 -12.328 6.369l-13.45 22.059a19.181 19.181 0 0 1 -19 9.17l-20.432-2.542a19.458 19.458 0 0 1 -16.252-24.607l10.648-37.852a29.59 29.59 0 0 1 15.742-18.952l27.51-13.551-5.3-2.751a12.45 12.45 0 0 0 -12.023-.1l-21.295 10.9a27.754 27.754 0 0 1 -12.941 3.311zm-112.591-50.537-71.221 123.338 45.9 26.543 71.223-123.337-45.9-26.542zm184.779 7.438a101.228 101.228 0 1 0 -101.228-101.228 101.319 101.319 0 0 0 101.228 101.228zm-38.413-100.821a8.626 8.626 0 1 1 13.959-10.138l13.2 18.188 44.068-36.07a8.633 8.633 0 0 1 10.948 13.347l-51.1 41.877a8.733 8.733 0 0 1 -5.5 1.936 8.327 8.327 0 0 1 -6.98-3.515z" fill-rule="evenodd"/></svg>